<svg class="svg-icon" style="width: 1em; height: 1em;vertical-align: middle;fill: currentColor;overflow: hidden;" viewBox="0 0 1024 1024" version="1.1" xmlns="http://www.w3.org/2000/svg"><path d="M961.984 77.056H556.992a44.992 44.992 0 1 0-89.984 0H62.016a30.08 30.08 0 0 0 0 59.968h37.504v637.248c0 33.088 26.88 59.904 59.968 59.904h720a59.968 59.968 0 0 0 59.968-59.904V136.96h22.528a30.016 30.016 0 0 0 0-59.968z m-67.456 697.216a15.04 15.04 0 0 1-15.04 14.912H159.488a14.976 14.976 0 0 1-14.976-14.912V136.96h750.016v637.248z m-483.584 22.4c-5.76 0-11.52 2.112-16 6.592l-180.288 150.208a22.656 22.656 0 0 0 0 32c4.48 4.416 10.24 6.528 15.936 6.528s11.52-2.112 15.872-6.592L426.88 835.2a22.592 22.592 0 0 0-15.872-38.4z m202.112 0a22.4 22.4 0 0 0-15.936 6.592 22.72 22.72 0 0 0 0 31.872l180.352 150.208c4.416 4.48 10.176 6.656 16 6.656a22.528 22.528 0 0 0 15.872-38.4l-180.352-150.4a22.144 22.144 0 0 0-15.936-6.528z m-58.24-526.528h254.976a22.592 22.592 0 0 0 22.592-22.528 22.592 22.592 0 0 0-22.592-22.464H554.88a22.528 22.528 0 1 0 0 44.992z m254.976 93.12H554.88a22.528 22.528 0 0 0 0 44.992h254.976a22.592 22.592 0 0 0 22.592-22.528 22.592 22.592 0 0 0-22.592-22.464z m0 138.112H554.88a22.528 22.528 0 1 0 0 44.992h254.976a22.592 22.592 0 0 0 22.592-22.528 22.592 22.592 0 0 0-22.592-22.464z m-466.176 43.008a142.08 142.08 0 0 0 9.472-283.904v151.296H201.856a142.08 142.08 0 0 0 141.76 132.608z m-6.272-304.704a151.488 151.488 0 0 0-151.552 151.488H337.28V239.68z m472.448 399.808H209.792a22.464 22.464 0 0 0 0 44.992h600a22.592 22.592 0 0 0 22.592-22.464 22.592 22.592 0 0 0-22.592-22.528z"  /></svg>