<svg class="svg-icon" style="width: 1em;height: 1em;vertical-align: middle;fill: currentColor;overflow: hidden;" viewBox="0 0 1024 1024" version="1.1" xmlns="http://www.w3.org/2000/svg"><path d="M935.762 547.304h-599.24c-15.372 0-27.811-12.439-27.811-27.811s12.439-27.811 27.811-27.811h599.24c15.372 0 27.811 12.439 27.811 27.811s-12.438 27.811-27.811 27.811zM935.762 868.569h-599.24c-15.372 0-27.811-12.439-27.811-27.811s12.439-27.811 27.811-27.811h599.24c15.372 0 27.811 12.439 27.811 27.811s-12.438 27.811-27.811 27.811zM199.152 307.787h-52.146c-46.008 0-83.433-37.425-83.433-83.433v-52.2c0-46.008 37.425-83.433 83.433-83.433h52.146c46.008 0 83.433 37.425 83.433 83.433v52.2c0 46.008-37.425 83.433-83.433 83.433z m-52.146-163.444c-15.318 0-27.811 12.466-27.811 27.811v52.2c0 15.345 12.493 27.811 27.811 27.811h52.146c15.318 0 27.811-12.466 27.811-27.811v-52.2c0-15.345-12.493-27.811-27.811-27.811h-52.146zM173.079 627.993c-60.402 0-109.506-49.131-109.506-109.533s49.104-109.533 109.506-109.533 109.506 49.131 109.506 109.533-49.104 109.533-109.506 109.533z m0-163.443c-29.712 0-53.884 24.172-53.884 53.911s24.172 53.911 53.884 53.911 53.884-24.172 53.884-53.911-24.172-53.911-53.884-53.911zM418.218 226.065h-54.481c-15.372 0-27.811-12.439-27.811-27.811s12.439-27.811 27.811-27.811h54.481c15.372 0 27.811 12.439 27.811 27.811s-12.439 27.811-27.811 27.811zM935.762 226.065h-315.48c-15.372 0-27.811-12.439-27.811-27.811s12.439-27.811 27.811-27.811h315.481c15.372 0 27.811 12.439 27.811 27.811s-12.439 27.811-27.812 27.811z" fill="#333333" /><path d="M527.194 198.245m-27.239 0a27.239 27.239 0 1 0 54.478 0 27.239 27.239 0 1 0-54.478 0Z" fill="#333333" /><path d="M150.048 923.05a27.72 27.72 0 0 1-19.663-8.148l-58.664-58.664c-10.864-10.864-10.864-28.463 0-39.326 10.864-10.864 28.463-10.864 39.326 0l39.001 39 89.299-89.299c10.864-10.864 28.463-10.864 39.326 0 10.864 10.864 10.864 28.463 0 39.326L169.711 914.903a27.717 27.717 0 0 1-19.663 8.147z" fill="#333333" /></svg>